<svg xmlns="http://www.w3.org/2000/svg" xmlns:xlink="http://www.w3.org/1999/xlink" version="1.1" x="0px" y="0px" viewBox="0 0 2560 1440" style="enable-background:new 0 0 2560 1440;" xml:space="preserve">
<g id="BACKGROUND">
	<rect style="fill: transparent;" width="2560" height="1440"/>
	<g>
		<defs>
			<rect id="SVGID_1_" width="2560" height="1440"/>
		</defs>
		<clipPath id="SVGID_00000137128353514400836250000014406731359151860909_">
			<use xlink:href="#SVGID_1_" style="overflow:visible;"/>
		</clipPath>
		<g style="clip-path:url(#SVGID_00000137128353514400836250000014406731359151860909_);">
			<g>
				<path style="fill:#FD6572;" d="M1409.733,870.009c-0.056-0.987-0.576-1.889-1.402-2.432c-0.826-0.543-1.861-0.662-2.789-0.322      l-88.643,32.518c-0.924,0.339-1.634,1.095-1.916,2.039c-0.281,0.943-0.1,1.964,0.487,2.754l53.676,72.162      c0.602,0.808,1.538,1.259,2.505,1.259c0.349,0,0.703-0.059,1.045-0.18l40.09-14.254c1.306-0.464,2.149-1.734,2.071-3.118      L1409.733,870.009z"/>
				<path style="fill:#00C1B3;" d="M1072.043,735.206c-0.056-0.987-0.576-1.889-1.402-2.432c-0.826-0.543-1.861-0.662-2.789-0.322      l-88.643,32.518c-0.924,0.339-1.634,1.095-1.916,2.039c-0.281,0.944-0.1,1.964,0.487,2.754l53.676,72.162      c0.602,0.808,1.538,1.259,2.505,1.259c0.349,0,0.703-0.059,1.045-0.18l40.09-14.254c1.306-0.464,2.149-1.734,2.071-3.118      L1072.043,735.206z"/>
				<path style="fill:#2518EE;" d="M19.193,736.208l-43.486,27.23c-1.1,0.689-1.776,1.888-1.794,3.187l-0.983,69.316      c-0.019,1.342,0.667,2.596,1.807,3.303c1.14,0.708,2.567,0.766,3.762,0.154l95.471-48.945c0.696-0.357,1.255-0.911,1.617-1.581      c0.215-0.397,0.362-0.834,0.426-1.294c0.172-1.234-0.267-2.475-1.178-3.324l-51.003-47.602      C22.565,735.471,20.661,735.288,19.193,736.208z"/>
				<path style="fill:#FED652;" d="M923.898,1119.462c-10.838,3.236-20.619,9.415-28.285,17.872      c-1.127,1.243-1.105,3.146,0.051,4.363l14.89,15.674c0.631,0.664,1.516,1.027,2.431,0.997c0.915-0.03,1.773-0.45,2.36-1.154      c4.336-5.209,10.063-8.989,16.562-10.929c18.166-5.423,37.358,4.944,42.781,23.111c4.092,13.707-0.864,28.7-12.333,37.309      c-0.732,0.549-1.194,1.385-1.27,2.297c-0.076,0.912,0.24,1.814,0.871,2.477l14.953,15.741c0.856,0.901,2.119,1.2,3.245,0.864      c0.396-0.118,0.775-0.315,1.114-0.593c19.51-15.992,27.456-41.939,20.243-66.102      C991.671,1128.432,956.854,1109.624,923.898,1119.462z"/>
				<path style="fill:#FD6572;" d="M-29.677,577.674c8.073,7.923,18.211,13.497,29.32,16.119c1.633,0.385,3.288-0.553,3.795-2.154      l6.521-20.612c0.276-0.873,0.166-1.823-0.303-2.61c-0.468-0.786-1.251-1.335-2.151-1.508      c-6.657-1.277-12.734-4.463-17.574-9.213c-13.53-13.279-13.735-35.091-0.455-48.622c10.02-10.209,25.54-13.12,38.621-7.244      c0.835,0.375,1.79,0.375,2.625,0.001c0.835-0.374,1.472-1.087,1.747-1.96l6.549-20.7c0.375-1.185,0.026-2.435-0.812-3.258      c-0.295-0.289-0.651-0.526-1.057-0.689c-23.432-9.346-49.986-3.756-67.65,14.241C-54.594,514.013-54.224,553.582-29.677,577.674      z"/>
				<path style="fill:#FED652;" d="M541.646,340.06c3.74,10.675,10.371,20.155,19.178,27.416c1.295,1.068,3.194,0.957,4.356-0.255      l14.959-15.609c0.634-0.661,0.954-1.562,0.882-2.475c-0.073-0.912-0.532-1.75-1.263-2.303      c-5.407-4.087-9.451-9.631-11.693-16.031c-6.269-17.892,3.187-37.549,21.079-43.818c13.5-4.73,28.709-0.483,37.847,10.57      c0.583,0.705,1.439,1.128,2.354,1.161c0.915,0.033,1.801-0.325,2.433-0.986l15.022-15.674c0.86-0.898,1.1-2.173,0.711-3.282      c-0.136-0.39-0.351-0.76-0.644-1.085c-16.89-18.739-43.18-25.46-66.979-17.121C547.428,271.941,530.273,307.601,541.646,340.06z      "/>
				<path style="fill:#FD6572;" d="M394.428,1455.692l-80.467-39.882c-1.362-0.676-2.98-0.573-4.244,0.269      c-1.264,0.842-1.984,2.294-1.888,3.81l5.694,89.627c0.097,1.516,0.994,2.866,2.356,3.541c0.597,0.296,1.244,0.442,1.889,0.442      c0.824,0,1.646-0.239,2.355-0.712l74.772-49.745c1.264-0.841,1.984-2.294,1.888-3.81      C396.688,1457.716,395.79,1456.367,394.428,1455.692z"/>
				<path style="fill:#FD6572;" d="M-52.472,970.532l25.409-86.139c0.431-1.458,0.05-3.034-0.997-4.134      c-1.047-1.101-2.602-1.559-4.079-1.203l-87.302,21.065c-1.477,0.357-2.651,1.474-3.081,2.931      c-0.189,0.639-0.221,1.302-0.11,1.937c0.142,0.812,0.52,1.58,1.107,2.198l61.895,65.074c1.047,1.101,2.601,1.559,4.079,1.203      C-54.077,973.106-52.902,971.989-52.472,970.532z"/>
				<path style="fill:#8F5BD9;" d="M464.021,422.589l-80.467-39.882c-1.362-0.676-2.98-0.573-4.244,0.269      c-1.264,0.841-1.984,2.294-1.888,3.81l5.694,89.627c0.097,1.516,0.994,2.866,2.356,3.54c0.597,0.296,1.244,0.442,1.888,0.442      c0.824,0,1.646-0.239,2.356-0.712l74.772-49.745c1.264-0.841,1.984-2.294,1.889-3.81      C466.28,424.614,465.382,423.264,464.021,422.589z"/>
				<path style="fill:#00C1B3;" d="M159.087,666.478l-22.714-86.888c-0.383-1.472-1.523-2.624-2.988-3.026      c-1.465-0.402-3.033,0.008-4.115,1.075l-63.89,63.115c-1.081,1.068-1.51,2.631-1.126,4.101c0.168,0.645,0.483,1.229,0.906,1.715      c0.541,0.622,1.261,1.085,2.083,1.31l86.604,23.773c1.465,0.402,3.033-0.008,4.114-1.075      C159.042,669.511,159.471,667.948,159.087,666.478z"/>
				<path style="fill:#FD6572;" d="M1036.733,940.519l-58.667-20.842c-0.993-0.354-2.098-0.15-2.899,0.534      c-0.801,0.683-1.178,1.742-0.987,2.778l11.284,61.228c0.191,1.036,0.92,1.891,1.913,2.244c0.435,0.155,0.893,0.202,1.336,0.149      c0.567-0.068,1.113-0.3,1.563-0.683l47.383-40.386c0.802-0.683,1.178-1.742,0.987-2.778      C1038.454,941.727,1037.725,940.872,1036.733,940.519z"/>
				
					<ellipse transform="matrix(0.9867 -0.1624 0.1624 0.9867 -51.3019 205.4835)" style="fill:#8F5BD9;" cx="1231.623" cy="416.638" rx="42.941" ry="42.941"/>
				
					<ellipse transform="matrix(0.9871 -0.1602 0.1602 0.9871 -222.5465 114.8129)" style="fill:#8F5BD9;" cx="600.864" cy="1437.771" rx="42.941" ry="42.941"/>
				
					<ellipse transform="matrix(0.9732 -0.2298 0.2298 0.9732 -161.2073 7.5151)" style="fill:#FED652;" cx="-48.332" cy="696.031" rx="16.066" ry="16.065"/>
				<path style="fill:#FED652;" d="M1347.532,443.664c-8.858,0-16.065,7.207-16.065,16.065c0,8.859,7.207,16.065,16.065,16.065      c8.859,0,16.066-7.207,16.066-16.065C1363.598,450.871,1356.391,443.664,1347.532,443.664z"/>
				<path style="fill:#00C1B3;" d="M119.37,1424.965c-0.056-0.987-0.576-1.889-1.402-2.432c-0.826-0.543-1.861-0.662-2.789-0.322      l-88.643,32.518c-0.924,0.339-1.635,1.095-1.916,2.039c-0.281,0.944-0.101,1.965,0.487,2.755l53.676,72.162      c0.602,0.808,1.538,1.259,2.505,1.259c0.349,0,0.703-0.059,1.045-0.181l40.09-14.254c1.306-0.464,2.149-1.734,2.07-3.118      L119.37,1424.965z"/>
				<path style="fill:#FED652;" d="M-68.575,1259.65c-10.838,3.235-20.619,9.415-28.285,17.871      c-1.127,1.244-1.106,3.146,0.051,4.363l14.89,15.674c0.631,0.664,1.515,1.026,2.431,0.997c0.915-0.029,1.773-0.45,2.36-1.153      c4.337-5.209,10.063-8.989,16.562-10.929c18.166-5.423,37.358,4.944,42.781,23.11c4.092,13.707-0.864,28.7-12.333,37.309      c-0.732,0.549-1.194,1.385-1.27,2.297c-0.076,0.912,0.24,1.814,0.87,2.477l14.953,15.74c0.856,0.901,2.119,1.201,3.245,0.865      c0.396-0.118,0.775-0.315,1.114-0.593c19.511-15.993,27.456-41.939,20.243-66.103      C-0.803,1268.619-35.619,1249.811-68.575,1259.65z"/>
				<path style="fill:#FD6572;" d="M138.052,1152.363l-91.017-45.111c-1.541-0.765-3.37-0.648-4.801,0.305      c-1.43,0.952-2.245,2.595-2.136,4.31l6.441,101.379c0.109,1.715,1.124,3.242,2.664,4.005c0.675,0.335,1.407,0.5,2.136,0.5      c0.932,0,1.861-0.271,2.664-0.805l84.576-56.268c1.43-0.952,2.245-2.595,2.136-4.31      C140.607,1154.652,139.591,1153.126,138.052,1152.363z"/>
				<path style="fill:#2518EE;" d="M197.513,1354.137l21.756-87.133c0.37-1.475-0.078-3.033-1.171-4.088      c-1.092-1.055-2.665-1.448-4.126-1.03l-86.337,24.725c-1.461,0.419-2.587,1.584-2.955,3.058c-0.162,0.647-0.166,1.31-0.029,1.94      c0.176,0.805,0.586,1.557,1.199,2.149l64.581,62.408c1.092,1.055,2.665,1.448,4.126,1.03      C196.018,1356.776,197.145,1355.611,197.513,1354.137z"/>
				<circle style="fill:#8F5BD9;" cx="-90.116" cy="1104.449" r="42.941"/>
				
					<ellipse transform="matrix(0.2298 -0.9732 0.9732 0.2298 -922.8748 926.2811)" style="fill:#00C1B3;" cx="123.766" cy="1046.192" rx="29.192" ry="29.192"/>
				<path style="fill:#FD6572;" d="M424.021,501.399c-8.859,0-16.066,7.207-16.066,16.065c0,8.859,7.207,16.065,16.066,16.065      c8.859,0,16.065-7.207,16.065-16.065C440.086,508.606,432.88,501.399,424.021,501.399z"/>
				<path style="fill:#FED652;" d="M40.088,904.872c-8.859,0-16.065,7.207-16.065,16.065c0,8.859,7.207,16.066,16.065,16.066      c8.859,0,16.065-7.207,16.065-16.066C56.153,912.08,48.946,904.872,40.088,904.872z"/>
				
					<ellipse transform="matrix(0.7071 -0.7071 0.7071 0.7071 -256.633 214.8244)" style="fill:#FED652;" cx="130.999" cy="417.196" rx="16.065" ry="16.065"/>
				<path style="fill:#2518EE;" d="M1129.571,183.556l-43.485,27.23c-1.1,0.689-1.776,1.888-1.794,3.187l-0.983,69.317      c-0.02,1.342,0.667,2.595,1.807,3.303c1.14,0.708,2.567,0.766,3.762,0.154l95.471-48.945c0.696-0.357,1.254-0.912,1.617-1.58      c0.215-0.398,0.362-0.835,0.425-1.294c0.172-1.234-0.267-2.475-1.178-3.324l-51.003-47.602      C1132.944,182.819,1131.04,182.637,1129.571,183.556z"/>
				<path style="fill:#FD6572;" d="M1014.448,32.525c8.073,7.923,18.211,13.497,29.32,16.118c1.633,0.386,3.288-0.554,3.795-2.154      l6.521-20.613c0.276-0.873,0.166-1.823-0.303-2.609c-0.468-0.786-1.251-1.335-2.151-1.508      c-6.657-1.277-12.734-4.463-17.574-9.213c-13.531-13.28-13.735-35.091-0.455-48.622c10.02-10.209,25.54-13.12,38.621-7.244      c0.835,0.375,1.79,0.376,2.625,0.001c0.835-0.374,1.472-1.087,1.747-1.96l6.549-20.7c0.375-1.185,0.026-2.435-0.812-3.258      c-0.295-0.289-0.651-0.526-1.057-0.689c-23.433-9.346-49.986-3.756-67.65,14.241C989.531-31.136,989.901,8.434,1014.448,32.525z      "/>
				<path style="fill:#00C1B3;" d="M1214.397,115.834l-22.714-86.889c-0.383-1.471-1.523-2.624-2.988-3.025      c-1.465-0.402-3.033,0.008-4.115,1.075l-63.891,63.115c-1.081,1.068-1.51,2.631-1.125,4.101      c0.168,0.645,0.483,1.229,0.906,1.715c0.541,0.622,1.261,1.085,2.083,1.31l86.604,23.774c1.465,0.402,3.033-0.008,4.114-1.075      C1214.351,118.867,1214.781,117.303,1214.397,115.834z"/>
				<path style="fill:#FED652;" d="M995.793,134.817c-8.859,0-16.066,7.207-16.066,16.066c0,8.858,7.207,16.065,16.066,16.065      c8.858,0,16.065-7.207,16.065-16.065C1011.859,142.024,1004.651,134.817,995.793,134.817z"/>
				<path style="fill:#00C1B3;" d="M1103.36,348.979c-8.859,0-16.066,7.207-16.066,16.065c0,8.858,7.207,16.065,16.066,16.065      c8.858,0,16.065-7.207,16.065-16.065C1119.426,356.186,1112.219,348.979,1103.36,348.979z"/>
				<path style="fill:#2518EE;" d="M754.172,1315.038c-8.859,0-16.066,7.207-16.066,16.065c0,8.859,7.207,16.065,16.066,16.065      c8.858,0,16.065-7.207,16.065-16.065C770.237,1322.244,763.03,1315.038,754.172,1315.038z"/>
				<path style="fill:#2518EE;" d="M602.819,1146.953l44.753,25.092c1.133,0.635,2.509,0.653,3.657,0.045l61.291-32.39      c1.187-0.627,1.958-1.831,2.032-3.17c0.075-1.34-0.559-2.62-1.67-3.375l-88.745-60.288c-0.647-0.439-1.402-0.663-2.163-0.66      c-0.452,0.002-0.906,0.083-1.339,0.247c-1.165,0.441-2.043,1.422-2.352,2.628l-17.299,67.587      C600.554,1144.348,601.307,1146.106,602.819,1146.953z"/>
				<path style="fill:#FD6572;" d="M525.529,1320.418c3.079-10.884,3.106-22.453,0.077-33.458c-0.445-1.618-2.063-2.619-3.71-2.296      l-21.214,4.167c-0.899,0.176-1.679,0.729-2.145,1.518c-0.465,0.788-0.571,1.738-0.291,2.61      c2.073,6.454,2.193,13.314,0.347,19.839c-5.161,18.243-24.201,28.886-42.443,23.725c-13.764-3.894-23.764-16.115-24.884-30.411      c-0.071-0.913-0.529-1.75-1.258-2.304c-0.729-0.554-1.66-0.77-2.557-0.593l-21.304,4.184c-1.22,0.24-2.149,1.145-2.469,2.276      c-0.112,0.398-0.15,0.824-0.097,1.258c3.041,25.044,20.684,45.661,44.949,52.525      C481.625,1372.821,516.167,1353.513,525.529,1320.418z"/>
				<path style="fill:#00C1B3;" d="M502.704,1105.015l-65.341,61.612c-1.107,1.042-1.572,2.595-1.221,4.074      c0.35,1.478,1.462,2.657,2.917,3.094l86.028,25.781c1.456,0.436,3.033,0.063,4.138-0.98c0.485-0.457,0.847-1.013,1.07-1.618      c0.286-0.773,0.347-1.626,0.15-2.456l-20.687-87.393c-0.35-1.478-1.462-2.658-2.917-3.094      C505.387,1103.599,503.81,1103.972,502.704,1105.015z"/>
				<path style="fill:#FED652;" d="M624.232,1287.714c4.25,7.773,14.031,10.639,21.803,6.389c7.773-4.25,10.639-14.03,6.389-21.803      c-4.25-7.773-14.031-10.639-21.803-6.389C622.848,1270.16,619.982,1279.941,624.232,1287.714z"/>
				<path style="fill:#00C1B3;" d="M760.538,1090.593c4.25,7.773,14.03,10.639,21.803,6.389c7.772-4.25,10.639-14.031,6.389-21.803      c-4.25-7.773-14.031-10.639-21.803-6.389C759.154,1073.039,756.288,1082.82,760.538,1090.593z"/>
				<path style="fill:#2518EE;" d="M320.676,1258.58c4.25,7.772,14.031,10.639,21.803,6.389c7.772-4.25,10.639-14.03,6.389-21.803      s-14.03-10.639-21.803-6.389C319.293,1241.026,316.427,1250.807,320.676,1258.58z"/>
				<path style="fill:#2518EE;" d="M1006.412,431.33c-8.859,0-16.065,7.207-16.065,16.066c0,8.858,7.207,16.065,16.065,16.065      c8.859,0,16.065-7.207,16.065-16.065C1022.477,438.537,1015.271,431.33,1006.412,431.33z"/>
				<circle style="fill:#FED652;" cx="284.175" cy="459.58" r="42.941"/>
				<circle style="fill:#FED652;" cx="270.096" cy="1121.361" r="42.941"/>
				
					<ellipse transform="matrix(0.9782 -0.2076 0.2076 0.9782 -190.4216 64.395)" style="fill:#8F5BD9;" cx="211.611" cy="939.496" rx="42.941" ry="42.941"/>
				<path style="fill:#2518EE;" d="M179.608,132.232l45.243,24.198c1.145,0.612,2.521,0.602,3.657-0.028l60.636-33.602      c1.174-0.65,1.921-1.869,1.968-3.21c0.048-1.341-0.611-2.609-1.736-3.341L199.45,57.737c-0.655-0.426-1.415-0.636-2.176-0.618      c-0.452,0.011-0.904,0.101-1.334,0.274c-1.156,0.464-2.014,1.462-2.299,2.675l-15.953,67.917      C177.292,129.673,178.08,131.415,179.608,132.232z"/>
				<path style="fill:#8F5BD9;" d="M105.78,307.199c2.862-10.943,2.659-22.511-0.588-33.453c-0.477-1.609-2.115-2.578-3.755-2.222      l-21.127,4.587c-0.895,0.194-1.664,0.762-2.114,1.56c-0.45,0.797-0.537,1.749-0.239,2.616      c2.201,6.411,2.457,13.268,0.741,19.828c-4.797,18.341-23.622,29.361-41.963,24.564c-13.839-3.62-24.08-15.64-25.483-29.911      c-0.089-0.911-0.564-1.74-1.304-2.279c-0.74-0.539-1.675-0.736-2.569-0.542l-21.217,4.607c-1.215,0.264-2.126,1.188-2.423,2.324      c-0.105,0.4-0.133,0.826-0.072,1.26c3.538,24.978,21.587,45.241,45.984,51.622C62.926,360.463,97.077,340.473,105.78,307.199z"/>
				<path style="fill:#FED652;" d="M791.32,20.637c7.404-8.551,12.333-19.018,14.257-30.269c0.283-1.654-0.758-3.247-2.387-3.653      l-20.979-5.221c-0.888-0.221-1.829-0.052-2.586,0.465c-0.756,0.516-1.254,1.332-1.371,2.241      c-0.859,6.724-3.659,12.988-8.098,18.115c-12.409,14.333-34.166,15.899-48.499,3.49c-10.815-9.363-14.689-24.671-9.641-38.093      c0.322-0.857,0.263-1.81-0.162-2.62c-0.426-0.81-1.177-1.401-2.065-1.621l-21.068-5.244c-1.206-0.3-2.432,0.126-3.201,1.014      c-0.271,0.313-0.485,0.683-0.621,1.098c-7.865,23.97-0.629,50.123,18.437,66.629C729.339,49.479,768.808,46.639,791.32,20.637z"/>
				<path style="fill:#FD6572;" d="M457.999,131.702l-87.373,20.77c-1.48,0.351-2.657,1.464-3.091,2.92      c-0.435,1.455-0.06,3.033,0.983,4.137l61.674,65.283c1.044,1.104,2.597,1.568,4.075,1.217c0.649-0.154,1.24-0.455,1.735-0.867      c0.634-0.527,1.113-1.236,1.356-2.053l25.7-86.052c0.434-1.456,0.06-3.033-0.983-4.137      C461.03,131.815,459.477,131.351,457.999,131.702z"/>
				<path style="fill:#FD6572;" d="M775.414,105.482l5.391,89.646c0.09,1.518,0.984,2.87,2.343,3.549      c1.359,0.679,2.977,0.582,4.245-0.255l74.94-49.492c1.268-0.838,1.992-2.287,1.901-3.804c-0.04-0.665-0.234-1.299-0.555-1.858      c-0.41-0.715-1.026-1.309-1.789-1.69l-80.331-40.154c-1.359-0.679-2.977-0.582-4.245,0.255      C776.048,102.516,775.323,103.965,775.414,105.482z"/>
				<path style="fill:#00C1B3;" d="M78.68,92.291l-64.104,62.898c-1.086,1.064-1.52,2.626-1.14,4.097      c0.379,1.471,1.514,2.628,2.978,3.035l86.523,24.066c1.464,0.407,3.033,0.003,4.118-1.061c0.476-0.467,0.826-1.03,1.038-1.638      c0.271-0.779,0.315-1.633,0.102-2.459l-22.42-86.965c-0.379-1.471-1.514-2.628-2.978-3.035      C81.335,90.822,79.765,91.227,78.68,92.291z"/>
				<path style="fill:#FD6572;" d="M206.556,296.295c7.038,12.287,22.761,16.557,35.048,9.518      c12.287-7.038,16.557-22.761,9.518-35.048c-7.038-12.286-22.761-16.556-35.048-9.518      C203.788,268.285,199.518,284.008,206.556,296.295z"/>
				<path style="fill:#FD6572;" d="M521.073-124l6.098,101.4c0.102,1.717,1.113,3.246,2.651,4.014      c1.537,0.768,3.367,0.658,4.801-0.288l84.766-55.981c1.434-0.947,2.254-2.587,2.151-4.302c-0.045-0.753-0.265-1.47-0.628-2.102      c-0.463-0.809-1.16-1.481-2.023-1.912l-90.864-45.419c-1.537-0.768-3.367-0.658-4.801,0.288      C521.79-127.355,520.97-125.715,521.073-124z"/>
				
					<ellipse transform="matrix(0.422 -0.9066 0.9066 0.422 254.0634 594.0772)" style="fill:#8F5BD9;" cx="592.912" cy="97.8" rx="42.941" ry="42.941"/>
				<path style="fill:#00C1B3;" d="M414.527-45.453c4.403,7.686,14.239,10.358,21.926,5.955c7.686-4.403,10.358-14.239,5.954-21.926      s-14.239-10.358-21.926-5.955C412.795-62.975,410.124-53.139,414.527-45.453z"/>
				<path style="fill:#00C1B3;" d="M853.848,76.342c4.403,7.687,14.239,10.358,21.926,5.955c7.686-4.403,10.358-14.239,5.955-21.926      c-4.403-7.686-14.239-10.358-21.926-5.955S849.444,68.655,853.848,76.342z"/>
				<path style="fill:#FED652;" d="M355.017,84.024c4.403,7.687,14.239,10.358,21.926,5.955c7.687-4.403,10.358-14.239,5.955-21.926      c-4.403-7.687-14.239-10.358-21.926-5.955C353.285,66.501,350.614,76.337,355.017,84.024z"/>
				<path style="fill:#2518EE;" d="M-100.261,249.442c4.403,7.686,14.239,10.358,21.926,5.955      c7.687-4.403,10.358-14.239,5.955-21.926c-4.403-7.687-14.239-10.358-21.926-5.955      C-101.993,231.919-104.664,241.755-100.261,249.442z"/>
				<path style="fill:#FED652;" d="M897.094,261.942c11.77,20.545,38.06,27.685,58.605,15.916      c20.546-11.769,27.685-38.06,15.916-58.605c-11.769-20.545-38.06-27.685-58.605-15.916      C892.465,215.106,885.325,241.396,897.094,261.942z"/>
				<path style="fill:#8F5BD9;" d="M246.914-3.743c11.77,20.545,38.06,27.685,58.605,15.916      c20.546-11.769,27.685-38.06,15.916-58.605c-11.769-20.545-38.06-27.685-58.605-15.916      C242.285-50.579,235.145-24.288,246.914-3.743z"/>
				<path style="fill:#2518EE;" d="M778.593,1485.504l46.183,22.351c1.168,0.566,2.543,0.5,3.653-0.175l59.229-36.023      c1.147-0.697,1.844-1.945,1.837-3.287c-0.006-1.342-0.716-2.582-1.87-3.268l-92.215-54.834c-0.672-0.4-1.439-0.578-2.199-0.529      c-0.451,0.029-0.899,0.137-1.322,0.328c-1.136,0.51-1.954,1.542-2.189,2.765l-13.197,68.506      C776.176,1483.04,777.034,1484.75,778.593,1485.504z"/>
				<path style="fill:#FD6572;" d="M1056.736,1473.732l-86.463,24.281c-1.464,0.41-2.596,1.57-2.971,3.043      c-0.375,1.472,0.063,3.033,1.15,4.094l64.26,62.739c1.087,1.061,2.658,1.462,4.12,1.051c0.642-0.18,1.22-0.505,1.698-0.936      c0.612-0.552,1.062-1.28,1.273-2.106l22.203-87.02c0.376-1.472-0.063-3.033-1.149-4.094      C1059.769,1473.722,1058.198,1473.321,1056.736,1473.732z"/>
				<path style="fill:#FED652;" d="M1346.124,1096.259c-0.806,0.572-1.293,1.492-1.314,2.481c-0.02,0.989,0.429,1.928,1.211,2.533      l74.672,57.785c0.779,0.602,1.796,0.802,2.745,0.539c0.949-0.264,1.717-0.959,2.074-1.877l32.576-83.828      c0.365-0.939,0.248-1.972-0.266-2.791c-0.186-0.296-0.423-0.564-0.709-0.789l-33.388-26.375      c-1.088-0.859-2.611-0.898-3.741-0.096L1346.124,1096.259z"/>
				<path style="fill:#FED652;" d="M1310.161,1333.645c8.503,7.459,18.937,12.457,30.175,14.453      c1.652,0.294,3.252-0.737,3.668-2.363l5.358-20.945c0.227-0.887,0.064-1.829-0.448-2.589c-0.511-0.759-1.324-1.263-2.231-1.385      c-6.718-0.903-12.964-3.744-18.062-8.216c-14.252-12.502-15.676-34.269-3.174-48.52c9.433-10.754,24.767-14.528,38.155-9.393      c0.855,0.328,1.808,0.275,2.621-0.145c0.813-0.42,1.409-1.168,1.635-2.054l5.381-21.033c0.308-1.204-0.11-2.433-0.993-3.208      c-0.311-0.272-0.679-0.489-1.094-0.629c-23.918-8.021-50.118-0.954-66.748,18.003      C1281.723,1271.477,1284.306,1310.964,1310.161,1333.645z"/>
				<path style="fill:#FD6572;" d="M1109.432,1215.691l10.188,101.071c0.171,1.711,1.244,3.199,2.811,3.904      c1.567,0.706,3.391,0.522,4.786-0.482l82.436-59.359c1.394-1.004,2.147-2.676,1.975-4.386c-0.075-0.751-0.324-1.458-0.712-2.075      c-0.496-0.79-1.219-1.433-2.099-1.828l-92.624-41.713c-1.567-0.705-3.391-0.521-4.786,0.482      C1110.013,1212.31,1109.26,1213.981,1109.432,1215.691z"/>
				<path style="fill:#2518EE;" d="M1248.977,1089.504l-85.364,27.903c-1.446,0.471-2.527,1.678-2.84,3.165      c-0.313,1.486,0.191,3.027,1.321,4.042l66.846,59.976c1.131,1.014,2.717,1.348,4.161,0.877c0.634-0.207,1.197-0.556,1.658-1.008      c0.588-0.577,1.007-1.323,1.182-2.158l18.517-87.879c0.313-1.486-0.191-3.027-1.321-4.042      C1252.007,1089.366,1250.421,1089.032,1248.977,1089.504z"/>
				<path style="fill:#2518EE;" d="M1372.069-70.595c-0.056-0.987-0.576-1.889-1.402-2.432c-0.826-0.543-1.861-0.662-2.789-0.322      l-88.643,32.518c-0.924,0.339-1.634,1.095-1.916,2.039c-0.282,0.944-0.101,1.964,0.487,2.754l53.676,72.162      c0.601,0.808,1.538,1.259,2.505,1.259c0.349,0,0.703-0.059,1.045-0.181l40.09-14.254c1.306-0.464,2.149-1.734,2.071-3.118      L1372.069-70.595z"/>
				<path style="fill:#FED652;" d="M-104.136-22.475c-10.838,3.236-20.619,9.415-28.285,17.872      c-1.127,1.244-1.105,3.146,0.051,4.363l14.89,15.674c0.63,0.664,1.515,1.027,2.43,0.997c0.915-0.03,1.774-0.449,2.36-1.154      c4.336-5.21,10.063-8.988,16.561-10.928c18.166-5.423,37.358,4.944,42.781,23.11c4.092,13.707-0.864,28.7-12.332,37.309      c-0.732,0.549-1.194,1.385-1.271,2.297c-0.076,0.912,0.24,1.814,0.871,2.477l14.953,15.741c0.856,0.901,2.119,1.2,3.244,0.865      c0.396-0.118,0.776-0.315,1.114-0.593c19.511-15.993,27.457-41.939,20.243-66.103C-36.363-13.505-71.179-32.313-104.136-22.475z      "/>
				<path style="fill:#FED652;" d="M1260.74,250.161c-10.838,3.235-20.619,9.415-28.285,17.872      c-1.127,1.243-1.105,3.146,0.051,4.363l14.89,15.674c0.63,0.664,1.516,1.027,2.431,0.997c0.915-0.03,1.773-0.449,2.36-1.154      c4.336-5.21,10.063-8.989,16.562-10.928c18.166-5.423,37.358,4.944,42.781,23.11c4.092,13.707-0.864,28.7-12.332,37.309      c-0.732,0.549-1.194,1.385-1.27,2.297c-0.077,0.912,0.24,1.813,0.871,2.477l14.953,15.741c0.856,0.901,2.119,1.2,3.245,0.865      c0.396-0.118,0.775-0.315,1.114-0.593c19.51-15.992,27.457-41.939,20.243-66.102      C1328.512,259.13,1293.696,240.322,1260.74,250.161z"/>
				<path style="fill:#FD6572;" d="M1357.513,113.499l-58.667-20.842c-0.993-0.354-2.098-0.15-2.899,0.534      c-0.802,0.683-1.178,1.742-0.987,2.778l11.284,61.228c0.191,1.036,0.92,1.891,1.912,2.244c0.435,0.155,0.892,0.202,1.336,0.149      c0.567-0.068,1.113-0.3,1.563-0.684l47.383-40.386c0.802-0.683,1.178-1.742,0.987-2.778      C1359.235,114.707,1358.506,113.852,1357.513,113.499z"/>
				<path style="fill:#8F5BD9;" d="M303.885,585.536c-0.056-0.987-0.576-1.889-1.402-2.432c-0.826-0.543-1.861-0.662-2.789-0.322      l-88.643,32.518c-0.924,0.339-1.635,1.095-1.916,2.039c-0.281,0.944-0.101,1.964,0.487,2.755l53.676,72.162      c0.602,0.808,1.538,1.259,2.505,1.259c0.349,0,0.703-0.059,1.045-0.18l40.091-14.254c1.306-0.464,2.149-1.734,2.07-3.118      L303.885,585.536z"/>
				<path style="fill:#FD6572;" d="M296.745,788.161l-58.667-20.842c-0.993-0.354-2.098-0.15-2.9,0.534      c-0.801,0.683-1.178,1.742-0.987,2.778l11.284,61.228c0.191,1.036,0.92,1.891,1.912,2.244c0.436,0.155,0.893,0.202,1.336,0.149      c0.568-0.068,1.113-0.3,1.563-0.683l47.384-40.386c0.801-0.683,1.178-1.742,0.987-2.778      C298.466,789.369,297.737,788.514,296.745,788.161z"/>
				<path style="fill:#2518EE;" d="M743.695,262.061c-8.859,0-16.065,7.207-16.065,16.066c0,8.858,7.207,16.065,16.065,16.065      c8.859,0,16.066-7.207,16.066-16.065C759.76,269.268,752.553,262.061,743.695,262.061z"/>
				<path style="fill:#FD6572;" d="M97.514-73.069L12.15-45.166c-1.445,0.471-2.528,1.679-2.84,3.165      c-0.313,1.486,0.191,3.027,1.321,4.042l66.846,59.975c1.131,1.014,2.717,1.349,4.161,0.877c0.634-0.207,1.198-0.555,1.658-1.007      c0.588-0.577,1.007-1.324,1.182-2.158l18.517-87.878c0.313-1.486-0.19-3.027-1.321-4.042      C100.544-73.206,98.958-73.541,97.514-73.069z"/>
				
					<ellipse transform="matrix(0.9549 -0.2968 0.2968 0.9549 -372.076 417.8359)" style="fill:#8F5BD9;" cx="1190.17" cy="1434.409" rx="42.941" ry="42.941"/>
				<path style="fill:#00C1B3;" d="M1006.145,1298.477c4.71,7.503,14.646,9.774,22.148,5.065c7.503-4.71,9.774-14.646,5.065-22.149      c-4.71-7.503-14.646-9.774-22.149-5.064C1003.707,1281.039,1001.435,1290.975,1006.145,1298.477z"/>
				<path style="fill:#FED652;" d="M951.913,1430.251c4.71,7.503,14.646,9.774,22.149,5.064c7.502-4.71,9.774-14.646,5.064-22.148      c-4.71-7.503-14.646-9.774-22.149-5.064C949.474,1412.813,947.202,1422.749,951.913,1430.251z"/>
				
					<ellipse transform="matrix(0.1223 -0.9925 0.9925 0.1223 -504.0627 1944.1121)" style="fill:#8F5BD9;" cx="847.107" cy="1257.037" rx="42.941" ry="42.941"/>
				
					<ellipse transform="matrix(0.8411 -0.5409 0.5409 0.8411 -57.5695 521.1696)" style="fill:#00C1B3;" cx="858.134" cy="358.556" rx="33.288" ry="33.288"/>
				<path style="fill:#FED652;" d="M815.579,929.96c10.29-4.697,19.126-12.164,25.556-21.596c0.945-1.387,0.662-3.268-0.651-4.314      l-16.906-13.475c-0.716-0.571-1.642-0.808-2.545-0.653c-0.902,0.155-1.695,0.69-2.179,1.468      c-3.578,5.757-8.73,10.288-14.899,13.104c-17.247,7.872-37.683,0.246-45.555-17.001c-5.94-13.013-3.095-28.546,7.078-38.652      c0.649-0.645,0.992-1.536,0.942-2.45c-0.05-0.914-0.488-1.763-1.203-2.333l-16.978-13.532c-0.972-0.774-2.264-0.897-3.333-0.41      c-0.376,0.172-0.725,0.419-1.022,0.741c-17.123,18.526-21.421,45.32-10.95,68.26      C747.217,930.406,784.291,944.242,815.579,929.96z"/>
				<path style="fill:#FD6572;" d="M919.061,726.154l-67.816-9.922c-1.148-0.169-2.297,0.289-3.016,1.198      c-0.719,0.91-0.898,2.134-0.47,3.211l25.315,63.692c0.429,1.078,1.399,1.845,2.546,2.013c0.504,0.074,1.008,0.027,1.475-0.125      c0.598-0.195,1.138-0.563,1.541-1.073l42.501-53.769c0.719-0.91,0.898-2.134,0.47-3.211      C921.179,727.089,920.209,726.322,919.061,726.154z"/>
				<path style="fill:#FED652;" d="M438.573,631.888c-8.162-5.856-17.818-9.37-27.925-10.161c-1.486-0.116-2.811,0.933-3.038,2.406      l-2.921,18.977c-0.124,0.804,0.102,1.622,0.621,2.249c0.518,0.626,1.279,1.001,2.093,1.031      c6.016,0.216,11.783,2.186,16.677,5.697c13.681,9.816,16.826,28.932,7.01,42.613c-7.406,10.323-20.633,14.987-32.912,11.608      c-0.784-0.216-1.622-0.086-2.304,0.356c-0.683,0.442-1.144,1.154-1.267,1.957l-2.934,19.058      c-0.168,1.091,0.308,2.141,1.156,2.749c0.298,0.214,0.643,0.373,1.022,0.46c21.837,5.017,44.383-3.499,57.439-21.696      C469.097,684.375,463.392,649.695,438.573,631.888z"/>
				<path style="fill:#2518EE;" d="M560.685,718.528l88.783-13.534c1.503-0.228,2.768-1.241,3.32-2.657      c0.552-1.415,0.308-3.018-0.641-4.204l-56.111-70.121c-0.95-1.186-2.459-1.776-3.961-1.547c-0.659,0.1-1.272,0.352-1.8,0.722      c-0.675,0.473-1.21,1.141-1.52,1.935l-32.671,83.655c-0.553,1.415-0.309,3.018,0.64,4.204      C557.673,718.167,559.183,718.757,560.685,718.528z"/>
				<path style="fill:#FD6572;" d="M355.322,992.713l100.424-15.308c1.7-0.258,3.132-1.404,3.756-3.005      c0.625-1.601,0.349-3.413-0.725-4.755l-63.469-79.315c-1.074-1.341-2.782-2.009-4.48-1.75c-0.746,0.113-1.439,0.398-2.036,0.817      c-0.764,0.535-1.369,1.29-1.719,2.189l-36.955,94.623c-0.625,1.6-0.348,3.413,0.725,4.755      C351.915,992.305,353.623,992.972,355.322,992.713z"/>
				
					<ellipse transform="matrix(0.1253 -0.9921 0.9921 0.1253 34.9105 1150.9735)" style="fill:#FED652;" cx="670.225" cy="555.687" rx="42.941" ry="42.941"/>
				<path style="fill:#00C1B3;" d="M719.503,735.855c0.807,8.822,8.64,15.343,17.462,14.536c8.822-0.807,15.343-8.64,14.536-17.462      c-0.807-8.822-8.64-15.342-17.462-14.535C725.216,719.2,718.696,727.033,719.503,735.855z"/>
				
					<ellipse transform="matrix(0.8617 -0.5074 0.5074 0.8617 -182.7705 522.3151)" style="fill:#8F5BD9;" cx="866.831" cy="596.46" rx="42.941" ry="42.941"/>
			</g>
			<g>
				<path style="fill:#00C1B3;" d="M1523.69,353.05c0.056-0.987,0.576-1.889,1.402-2.432s1.861-0.662,2.789-0.322l88.643,32.518      c0.924,0.339,1.634,1.095,1.916,2.038c0.281,0.943,0.1,1.964-0.487,2.755l-53.676,72.162c-0.602,0.808-1.538,1.259-2.505,1.259      c-0.349,0-0.703-0.059-1.045-0.181l-40.09-14.254c-1.306-0.464-2.149-1.734-2.071-3.118L1523.69,353.05z"/>
				<path style="fill:#2518EE;" d="M1720.016,307.821c-0.601-0.785-0.796-1.807-0.524-2.758c0.272-0.951,0.979-1.716,1.904-2.063      l88.396-33.184c0.922-0.346,1.953-0.236,2.782,0.295c0.829,0.532,1.357,1.423,1.428,2.405l6.396,89.708      c0.071,1.005-0.345,1.957-1.078,2.588c-0.265,0.228-0.571,0.414-0.91,0.545l-39.683,15.351c-1.293,0.5-2.76,0.088-3.603-1.012      L1720.016,307.821z"/>
				<path style="fill:#FED652;" d="M1677.197,191.869c10.024,2.992,19.069,8.707,26.159,16.528c1.042,1.15,1.022,2.91-0.047,4.035      l-13.771,14.496c-0.583,0.614-1.402,0.949-2.248,0.922c-0.846-0.027-1.64-0.416-2.182-1.067      c-4.01-4.818-9.307-8.313-15.317-10.107c-16.801-5.016-34.55,4.572-39.565,21.373c-3.784,12.676,0.799,26.543,11.406,34.505      c0.677,0.508,1.104,1.281,1.175,2.125c0.071,0.844-0.222,1.677-0.805,2.29l-13.829,14.557c-0.792,0.833-1.96,1.11-3.001,0.8      c-0.366-0.109-0.717-0.292-1.03-0.548c-18.044-14.79-25.392-38.787-18.721-61.134      C1614.519,200.164,1646.718,182.77,1677.197,191.869z"/>
				<path style="fill:#FED652;" d="M1966.126,549.937c9.132,2.726,17.372,7.932,23.832,15.057c0.95,1.047,0.931,2.651-0.043,3.676      l-12.545,13.206c-0.531,0.56-1.277,0.865-2.048,0.84c-0.771-0.025-1.494-0.379-1.988-0.972      c-3.654-4.389-8.479-7.573-13.954-9.208c-15.306-4.569-31.476,4.166-36.045,19.471c-3.447,11.548,0.728,24.181,10.391,31.434      c0.617,0.463,1.006,1.167,1.07,1.935c0.064,0.769-0.202,1.528-0.733,2.087l-12.598,13.262c-0.722,0.759-1.786,1.011-2.734,0.728      c-0.333-0.099-0.653-0.265-0.939-0.499c-16.438-13.474-23.133-35.335-17.055-55.694      C1909.025,557.494,1938.359,541.648,1966.126,549.937z"/>
				<path style="fill:#FD6572;" d="M1526.445,71.361l80.467-39.882c1.362-0.676,2.98-0.573,4.244,0.27      c1.265,0.841,1.985,2.294,1.889,3.81l-5.694,89.627c-0.097,1.516-0.995,2.866-2.356,3.541c-0.597,0.296-1.244,0.442-1.888,0.442      c-0.825,0-1.646-0.239-2.356-0.712l-74.772-49.745c-1.265-0.841-1.985-2.294-1.889-3.81      C1524.186,73.385,1525.083,72.035,1526.445,71.361z"/>
				<path style="fill:#FD6572;" d="M2478.82,970.762l80.467-39.882c1.362-0.676,2.979-0.573,4.244,0.269      c1.264,0.841,1.985,2.294,1.888,3.81l-5.694,89.627c-0.097,1.516-0.994,2.866-2.355,3.54c-0.597,0.296-1.244,0.442-1.889,0.442      c-0.824,0-1.646-0.24-2.356-0.712l-74.772-49.745c-1.264-0.841-1.984-2.294-1.888-3.81      C2476.561,972.786,2477.459,971.437,2478.82,970.762z"/>
				<path style="fill:#FD6572;" d="M2077.088,45.841l-16.057-66.631c-0.273-1.128,0.078-2.314,0.919-3.112      c0.84-0.799,2.043-1.089,3.155-0.76l65.733,19.409c1.112,0.329,1.964,1.225,2.236,2.352c0.119,0.495,0.118,1.001,0.009,1.48      c-0.14,0.613-0.457,1.184-0.928,1.632l-49.675,47.222c-0.84,0.799-2.043,1.088-3.155,0.76      C2078.212,47.865,2077.359,46.968,2077.088,45.841z"/>
				<path style="fill:#2518EE;" d="M1445.547,282.222l-21.756-87.133c-0.369-1.475,0.078-3.033,1.171-4.088      c1.093-1.056,2.665-1.449,4.126-1.031l86.337,24.725c1.46,0.419,2.587,1.584,2.955,3.058c0.162,0.647,0.166,1.31,0.029,1.939      c-0.176,0.805-0.586,1.557-1.199,2.149l-64.581,62.408c-1.092,1.055-2.665,1.448-4.126,1.03      C1447.042,284.862,1445.916,283.696,1445.547,282.222z"/>
				<path style="fill:#00C1B3;" d="M1809.558,489.493l58.667-20.842c0.993-0.354,2.098-0.15,2.899,0.534      c0.801,0.683,1.177,1.742,0.987,2.778l-11.284,61.228c-0.191,1.036-0.92,1.891-1.913,2.244      c-0.435,0.155-0.892,0.202-1.336,0.149c-0.567-0.068-1.113-0.3-1.563-0.683l-47.383-40.386      c-0.801-0.683-1.178-1.742-0.987-2.778C1807.837,490.701,1808.566,489.846,1809.558,489.493z"/>
				
					<ellipse transform="matrix(0.9239 -0.3827 0.3827 0.9239 -209.7233 937.2141)" style="fill:#8F5BD9;" cx="2250.984" cy="995.782" rx="42.941" ry="42.941"/>
				<path style="fill:#FD6572;" d="M1665.905,452.074c8.859,0,16.066,7.207,16.066,16.065c0,8.859-7.207,16.066-16.066,16.066      c-8.858,0-16.065-7.207-16.065-16.066C1649.839,459.281,1657.046,452.074,1665.905,452.074z"/>
				<path style="fill:#FED652;" d="M1465.645-16.065c8.858,0,16.065,7.207,16.065,16.065s-7.207,16.065-16.065,16.065      c-8.859,0-16.066-7.207-16.066-16.065S1456.786-16.065,1465.645-16.065z"/>
				<path style="fill:#FD6572;" d="M2449.228,16.469c8.858,0,16.066,7.207,16.066,16.066c0,8.859-7.207,16.065-16.066,16.065      c-8.859,0-16.065-7.207-16.065-16.065C2433.162,23.677,2440.369,16.469,2449.228,16.469z"/>
				<path style="fill:#2518EE;" d="M2150.533,855.108c8.859,0,16.066,7.207,16.066,16.065c0,8.859-7.207,16.065-16.066,16.065      c-8.858,0-16.065-7.207-16.065-16.065C2134.468,862.315,2141.675,855.108,2150.533,855.108z"/>
				<path style="fill:#2518EE;" d="M2270.43,662.024l-44.753,25.092c-1.133,0.635-2.509,0.653-3.657,0.045l-61.291-32.39      c-1.187-0.627-1.958-1.831-2.032-3.17c-0.075-1.34,0.559-2.62,1.67-3.375l88.745-60.288c0.647-0.439,1.402-0.663,2.163-0.66      c0.452,0.002,0.906,0.083,1.339,0.247c1.165,0.441,2.043,1.422,2.352,2.628l17.299,67.587      C2272.695,659.418,2271.942,661.176,2270.43,662.024z"/>
				<path style="fill:#FD6572;" d="M2347.719,835.489c-3.079-10.884-3.106-22.453-0.077-33.458c0.445-1.618,2.063-2.62,3.71-2.296      l21.214,4.167c0.899,0.176,1.679,0.729,2.145,1.518c0.465,0.788,0.571,1.738,0.291,2.61c-2.073,6.454-2.193,13.314-0.347,19.839      c5.161,18.243,24.201,28.886,42.443,23.725c13.764-3.894,23.764-16.115,24.884-30.412c0.071-0.912,0.529-1.75,1.258-2.304      c0.729-0.554,1.66-0.77,2.557-0.593l21.304,4.185c1.22,0.24,2.149,1.145,2.469,2.276c0.113,0.398,0.15,0.824,0.097,1.258      c-3.041,25.044-20.684,45.661-44.949,52.525C2391.623,887.892,2357.082,868.584,2347.719,835.489z"/>
				<path style="fill:#00C1B3;" d="M2370.544,620.085l65.341,61.612c1.107,1.042,1.572,2.595,1.221,4.074      c-0.35,1.478-1.462,2.657-2.917,3.094l-86.028,25.781c-1.456,0.436-3.033,0.063-4.138-0.98      c-0.485-0.457-0.847-1.013-1.071-1.617c-0.286-0.773-0.347-1.627-0.15-2.456l20.687-87.393c0.35-1.478,1.462-2.658,2.917-3.094      C2367.862,618.669,2369.439,619.043,2370.544,620.085z"/>
				<path style="fill:#FED652;" d="M2266.205,813.299c-8.108,14.829-26.768,20.297-41.597,12.189      c-14.829-8.108-20.297-26.768-12.189-41.596c8.107-14.829,26.768-20.297,41.597-12.19      C2268.844,779.81,2274.313,798.47,2266.205,813.299z"/>
				<path style="fill:#FED652;" d="M1960.804,393.882c-8.108,14.829-26.768,20.297-41.597,12.189      c-14.829-8.108-20.297-26.768-12.189-41.596c8.108-14.829,26.768-20.297,41.597-12.19      C1963.444,360.393,1968.912,379.054,1960.804,393.882z"/>
				<path style="fill:#00C1B3;" d="M2112.711,605.663c-4.25,7.773-14.031,10.639-21.803,6.389      c-7.772-4.25-10.639-14.031-6.389-21.803c4.25-7.773,14.031-10.639,21.803-6.389      C2114.095,588.109,2116.961,597.891,2112.711,605.663z"/>
				<path style="fill:#2518EE;" d="M2552.573,773.65c-4.25,7.772-14.031,10.639-21.803,6.389c-7.773-4.25-10.639-14.03-6.389-21.803      c4.25-7.773,14.031-10.639,21.803-6.389S2556.822,765.878,2552.573,773.65z"/>
				<path style="fill:#2518EE;" d="M1906.079,11.766c8.859,0,16.065,7.207,16.065,16.066c0,8.858-7.207,16.065-16.065,16.065      s-16.065-7.207-16.065-16.065C1890.014,18.973,1897.221,11.766,1906.079,11.766z"/>
				
					<ellipse transform="matrix(0.9966 -0.0825 0.0825 0.9966 -41.9101 213.6915)" style="fill:#FED652;" cx="2565.428" cy="614.098" rx="42.941" ry="42.941"/>
				<path style="fill:#2518EE;" d="M2107.796,1018.929l-46.183,22.351c-1.168,0.565-2.543,0.5-3.653-0.175l-59.229-36.023      c-1.147-0.697-1.844-1.945-1.837-3.286c0.006-1.342,0.716-2.582,1.87-3.268l92.215-54.833c0.672-0.399,1.439-0.578,2.199-0.529      c0.451,0.029,0.899,0.138,1.322,0.328c1.136,0.51,1.954,1.542,2.189,2.765l13.197,68.506      C2110.213,1016.465,2109.356,1018.174,2107.796,1018.929z"/>
				<path style="fill:#FD6572;" d="M1816.513,988.802l86.463,24.281c1.464,0.41,2.596,1.57,2.971,3.043      c0.375,1.472-0.063,3.033-1.15,4.094l-64.26,62.739c-1.087,1.061-2.658,1.462-4.12,1.051c-0.642-0.18-1.22-0.505-1.698-0.936      c-0.612-0.552-1.062-1.28-1.272-2.106l-22.203-87.02c-0.376-1.472,0.063-3.033,1.149-4.094      C1813.48,988.792,1815.05,988.392,1816.513,988.802z"/>
				<path style="fill:#FED652;" d="M1516.718,552.999c0.806,0.572,1.294,1.492,1.314,2.481c0.021,0.989-0.429,1.928-1.211,2.533      l-74.672,57.785c-0.779,0.602-1.796,0.802-2.745,0.539c-0.949-0.264-1.717-0.96-2.074-1.877l-32.576-83.828      c-0.365-0.939-0.249-1.972,0.266-2.791c0.186-0.296,0.423-0.564,0.709-0.789l33.388-26.375c1.088-0.859,2.611-0.898,3.741-0.096      L1516.718,552.999z"/>
				<path style="fill:#FED652;" d="M1581.724,909.432c-2.527,9.237-7.567,17.637-14.575,24.291c-1.03,0.979-2.641,0.997-3.694,0.042      l-13.558-12.298c-0.574-0.521-0.898-1.263-0.891-2.038c0.007-0.775,0.346-1.51,0.93-2.02c4.325-3.772,7.412-8.694,8.927-14.232      c4.235-15.483-4.914-31.525-20.397-35.761c-11.682-3.196-24.276,1.292-31.339,11.167c-0.451,0.63-1.149,1.038-1.919,1.12      c-0.771,0.082-1.54-0.168-2.114-0.689l-13.616-12.349c-0.779-0.707-1.057-1.77-0.795-2.73c0.092-0.337,0.252-0.663,0.48-0.955      c13.156-16.827,34.963-24.059,55.557-18.426C1572.808,852.241,1589.408,881.344,1581.724,909.432z"/>
				<path style="fill:#FD6572;" d="M1641.26,548.278l85.364,27.903c1.445,0.471,2.528,1.678,2.84,3.165      c0.313,1.486-0.19,3.027-1.321,4.042l-66.846,59.976c-1.131,1.014-2.717,1.348-4.161,0.877      c-0.634-0.207-1.197-0.556-1.657-1.007c-0.588-0.577-1.007-1.324-1.182-2.158l-18.517-87.879      c-0.313-1.486,0.19-3.027,1.321-4.042C1638.23,548.14,1639.816,547.806,1641.26,548.278z"/>
				<path style="fill:#00C1B3;" d="M1766.234,45.283c0.056-0.987,0.576-1.889,1.402-2.432c0.826-0.543,1.861-0.662,2.789-0.322      l88.643,32.518c0.924,0.339,1.634,1.095,1.916,2.039c0.281,0.944,0.101,1.964-0.487,2.754l-53.676,72.162      c-0.601,0.809-1.538,1.259-2.505,1.259c-0.349,0-0.703-0.059-1.045-0.181l-40.09-14.254c-1.306-0.464-2.149-1.734-2.071-3.118      L1766.234,45.283z"/>
				<path style="fill:#8F5BD9;" d="M2515.124,86.292c0.056-0.987,0.576-1.889,1.402-2.432c0.826-0.543,1.862-0.662,2.789-0.322      l88.643,32.518c0.924,0.339,1.634,1.095,1.916,2.039c0.281,0.944,0.101,1.964-0.487,2.754l-53.676,72.162      c-0.602,0.808-1.538,1.259-2.505,1.259c-0.349,0-0.703-0.059-1.045-0.18l-40.091-14.254c-1.306-0.464-2.149-1.734-2.07-3.118      L2515.124,86.292z"/>
				<path style="fill:#2518EE;" d="M2535.108,312.718l58.667-20.842c0.993-0.354,2.098-0.15,2.899,0.534      c0.801,0.683,1.177,1.742,0.987,2.778l-11.284,61.228c-0.191,1.036-0.92,1.891-1.912,2.244      c-0.436,0.155-0.893,0.202-1.336,0.149c-0.568-0.068-1.114-0.3-1.563-0.683l-47.384-40.386      c-0.801-0.683-1.177-1.742-0.987-2.778C2533.386,313.926,2534.115,313.071,2535.108,312.718z"/>
				
					<ellipse transform="matrix(0.2861 -0.9582 0.9582 0.2861 348.8945 2331.293)" style="fill:#8F5BD9;" cx="1739.001" cy="931.5" rx="42.941" ry="42.941"/>
				<path style="fill:#00C1B3;" d="M1989.02,878.419c-6.261,9.973-19.468,12.993-29.44,6.732      c-9.973-6.261-12.993-19.468-6.732-29.441c6.261-9.973,19.468-12.992,29.441-6.732      C1992.261,855.239,1995.281,868.446,1989.02,878.419z"/>
				<path style="fill:#FED652;" d="M1913.289,955.307c-4.71,7.503-14.646,9.774-22.149,5.064c-7.502-4.71-9.774-14.646-5.064-22.148      c4.71-7.503,14.646-9.774,22.148-5.064C1915.728,937.869,1917.999,947.804,1913.289,955.307z"/>
				
					<ellipse transform="matrix(0.9964 -0.0844 0.0844 0.9964 -54.5356 179.6276)" style="fill:#8F5BD9;" cx="2097.051" cy="734.765" rx="42.941" ry="42.941"/>
				<path style="fill:#FED652;" d="M2080.234,447.066c-10.29-4.697-19.126-12.164-25.556-21.596      c-0.945-1.387-0.662-3.268,0.651-4.314l16.906-13.475c0.716-0.571,1.642-0.808,2.545-0.653c0.902,0.155,1.694,0.69,2.178,1.468      c3.578,5.757,8.73,10.288,14.899,13.104c17.247,7.872,37.683,0.246,45.555-17.001c5.94-13.013,3.095-28.546-7.079-38.652      c-0.649-0.645-0.992-1.536-0.942-2.45c0.05-0.914,0.488-1.763,1.203-2.333l16.978-13.532c0.972-0.774,2.264-0.897,3.333-0.41      c0.376,0.172,0.725,0.419,1.022,0.741c17.123,18.526,21.421,45.32,10.95,68.26      C2148.596,447.512,2111.522,461.348,2080.234,447.066z"/>
				<path style="fill:#FD6572;" d="M1954.187,241.225l67.816-9.922c1.148-0.169,2.297,0.289,3.016,1.199      c0.719,0.91,0.898,2.133,0.47,3.211l-25.315,63.692c-0.429,1.077-1.399,1.845-2.546,2.012c-0.504,0.074-1.008,0.027-1.475-0.125      c-0.598-0.195-1.138-0.563-1.541-1.073l-42.501-53.769c-0.719-0.91-0.898-2.133-0.47-3.211      C1952.07,242.159,1953.04,241.392,1954.187,241.225z"/>
				<path style="fill:#FED652;" d="M2402.023,234.08c7.808-5.603,17.046-8.964,26.714-9.721c1.422-0.111,2.689,0.892,2.906,2.302      l2.795,18.155c0.118,0.769-0.098,1.552-0.594,2.152c-0.495,0.599-1.224,0.958-2.002,0.986      c-5.756,0.206-11.272,2.091-15.954,5.45c-13.088,9.391-16.096,27.678-6.706,40.766c7.085,9.875,19.738,14.338,31.486,11.105      c0.75-0.207,1.552-0.083,2.204,0.34c0.653,0.423,1.094,1.104,1.212,1.873l2.806,18.232c0.161,1.044-0.294,2.048-1.105,2.63      c-0.285,0.205-0.615,0.357-0.978,0.44c-20.89,4.8-42.459-3.347-54.95-20.756C2372.823,284.292,2378.28,251.116,2402.023,234.08z      "/>
				<path style="fill:#2518EE;" d="M2312.564,233.598l-88.782-13.534c-1.503-0.228-2.769-1.241-3.321-2.657      c-0.552-1.415-0.308-3.018,0.641-4.204l56.111-70.121c0.949-1.186,2.459-1.776,3.961-1.547c0.659,0.1,1.272,0.352,1.801,0.722      c0.675,0.473,1.21,1.141,1.52,1.935l32.671,83.655c0.553,1.415,0.309,3.017-0.64,4.204      C2315.575,233.238,2314.066,233.827,2312.564,233.598z"/>
				<path style="fill:#FD6572;" d="M2517.927,507.783l-100.424-15.308c-1.7-0.258-3.132-1.404-3.756-3.005      c-0.625-1.6-0.349-3.413,0.725-4.755l63.469-79.315c1.074-1.341,2.782-2.009,4.48-1.75c0.746,0.113,1.439,0.398,2.037,0.817      c0.763,0.535,1.369,1.29,1.719,2.189l36.955,94.623c0.625,1.6,0.348,3.413-0.725,4.755      C2521.333,507.375,2519.626,508.042,2517.927,507.783z"/>
				<path style="fill:#8F5BD9;" d="M2278.942,451.203c-19.388-13.591-24.104-40.423-10.512-59.811      c13.592-19.388,40.423-24.104,59.811-10.512c19.388,13.591,24.104,40.423,10.512,59.811      C2325.162,460.079,2298.33,464.795,2278.942,451.203z"/>
				<path style="fill:#00C1B3;" d="M2348.726,158.145c-7.254-5.085-9.018-15.123-3.933-22.377      c5.085-7.254,15.123-9.018,22.377-3.933c7.254,5.085,9.018,15.123,3.933,22.377      C2366.018,161.466,2355.98,163.23,2348.726,158.145z"/>
				
					<ellipse transform="matrix(0.032 -0.9995 0.9995 0.032 2061.8313 2270.3911)" style="fill:#FED652;" cx="2203.024" cy="70.758" rx="42.941" ry="42.941"/>
				<path style="fill:#00C1B3;" d="M2153.746,250.925c-0.806,8.822-8.64,15.342-17.462,14.535      c-8.822-0.807-15.343-8.64-14.536-17.462c0.807-8.822,8.64-15.342,17.462-14.535      C2148.032,234.27,2154.553,242.104,2153.746,250.925z"/>
				<path style="fill:#8F5BD9;" d="M2049.18,115.442c-2.157,23.579-23.094,41.008-46.674,38.852      c-23.579-2.157-41.008-23.094-38.852-46.674c2.156-23.579,23.094-41.008,46.674-38.852      C2033.908,70.925,2051.337,91.863,2049.18,115.442z"/>
			</g>
			<g>
				<path style="fill:#FED652;" d="M1770.154,1520.691c7.635,8.345,17.459,14.456,28.411,17.671c1.61,0.473,3.313-0.376,3.905-1.947      l7.62-20.232c0.323-0.857,0.264-1.812-0.162-2.622c-0.425-0.81-1.177-1.4-2.066-1.621c-6.578-1.633-12.476-5.141-17.053-10.145      c-12.797-13.988-11.829-35.779,2.159-48.576c10.554-9.656,26.208-11.728,38.955-5.158c0.813,0.419,1.767,0.471,2.621,0.143      c0.854-0.329,1.528-1.007,1.85-1.863l7.652-20.317c0.438-1.163,0.157-2.431-0.636-3.297c-0.279-0.305-0.621-0.561-1.019-0.745      c-22.896-10.592-49.712-6.438-68.318,10.584C1748.695,1455.782,1746.938,1495.315,1770.154,1520.691z"/>
				<path style="fill:#2518EE;" d="M2268.236,1347.747l-29.282,42.131c-0.741,1.066-0.891,2.434-0.397,3.635l26.343,64.124      c0.509,1.241,1.633,2.125,2.959,2.327c1.326,0.203,2.662-0.305,3.52-1.337l68.548-82.532c0.5-0.601,0.795-1.331,0.866-2.089      c0.042-0.45,0.005-0.909-0.117-1.357c-0.327-1.202-1.219-2.17-2.39-2.594l-65.608-23.723      C2271.048,1345.743,2269.225,1346.324,2268.236,1347.747z"/>
				<path style="fill:#FD6572;" d="M2103.013,1254.124c10.537,4.112,22.05,5.252,33.296,3.296c1.653-0.288,2.806-1.802,2.643-3.472      l-2.106-21.517c-0.089-0.911-0.564-1.741-1.304-2.28c-0.74-0.539-1.675-0.736-2.571-0.541      c-6.623,1.442-13.463,0.902-19.781-1.564c-17.661-6.892-26.423-26.868-19.531-44.529c5.2-13.326,18.327-22.103,32.665-21.842      c0.915,0.017,1.793-0.358,2.414-1.03c0.621-0.673,0.926-1.578,0.836-2.489l-2.115-21.608c-0.121-1.237-0.933-2.25-2.027-2.677      c-0.385-0.15-0.805-0.228-1.243-0.218c-25.22,0.617-47.439,16.194-56.607,39.686      C2055.079,1205.381,2070.973,1241.62,2103.013,1254.124z"/>
				<path style="fill:#00C1B3;" d="M2319.615,1240.893l-55.039-70.967c-0.931-1.202-2.432-1.814-3.937-1.607      c-1.505,0.206-2.786,1.2-3.36,2.606l-33.939,83.148c-0.574,1.406-0.354,3.012,0.577,4.213c0.408,0.527,0.927,0.94,1.507,1.221      c0.742,0.359,1.585,0.502,2.43,0.386l88.978-12.182c1.505-0.206,2.786-1.2,3.36-2.606      C2320.765,1243.7,2320.545,1242.094,2319.615,1240.893z"/>
				<path style="fill:#FED652;" d="M2126.068,1355.515c-8.146,3.482-11.939,12.942-8.458,21.087      c3.482,8.145,12.942,11.939,21.087,8.457c8.145-3.482,11.939-12.942,8.457-21.087      C2143.674,1355.827,2134.214,1352.033,2126.068,1355.515z"/>
				<path style="fill:#FED652;" d="M1874.176,1187.395c3.447-10.773,3.865-22.335,1.212-33.436c-0.39-1.632-1.973-2.688-3.63-2.421      l-21.343,3.445c-0.904,0.146-1.703,0.671-2.195,1.444c-0.492,0.772-0.63,1.718-0.38,2.599c1.853,6.52,1.74,13.38-0.326,19.84      c-5.776,18.057-25.166,28.049-43.224,22.272c-13.624-4.359-23.204-16.912-23.838-31.238c-0.04-0.915-0.469-1.768-1.179-2.345      c-0.71-0.578-1.633-0.825-2.536-0.679l-21.433,3.459c-1.227,0.198-2.187,1.072-2.545,2.19c-0.126,0.394-0.177,0.818-0.14,1.254      c2.19,25.132,19.124,46.336,43.143,54.019C1828.521,1238.28,1863.697,1220.154,1874.176,1187.395z"/>
				<path style="fill:#FD6572;" d="M1612.763,1386.377l-72.177,53.442c-1.223,0.904-1.868,2.391-1.695,3.901      c0.172,1.509,1.137,2.812,2.53,3.418l82.37,35.786c1.393,0.605,3.004,0.421,4.225-0.483c0.536-0.397,0.961-0.906,1.255-1.479      c0.376-0.734,0.537-1.574,0.44-2.421l-10.193-89.228c-0.173-1.509-1.137-2.812-2.53-3.418      C1615.595,1385.29,1613.984,1385.473,1612.763,1386.377z"/>
				<path style="fill:#FD6572;" d="M1892.9,1271.663l40.195,80.311c0.68,1.36,2.033,2.252,3.55,2.342      c1.516,0.09,2.966-0.635,3.803-1.903l49.454-74.965c0.837-1.268,0.933-2.886,0.253-4.245c-0.298-0.596-0.726-1.102-1.241-1.491      c-0.658-0.497-1.458-0.801-2.309-0.851l-89.649-5.346c-1.516-0.09-2.966,0.635-3.803,1.903      C1892.317,1268.687,1892.22,1270.305,1892.9,1271.663z"/>
				<path style="fill:#00C1B3;" d="M1566.078,984.741l-34.221,83.033c-0.58,1.405-0.365,3.012,0.563,4.215      c0.927,1.203,2.425,1.821,3.931,1.62l89.019-11.88c1.506-0.201,2.79-1.19,3.369-2.595c0.254-0.616,0.355-1.271,0.311-1.915      c-0.057-0.823-0.353-1.625-0.873-2.301l-54.798-71.153c-0.927-1.203-2.425-1.821-3.931-1.621      C1567.941,982.347,1566.657,983.336,1566.078,984.741z"/>
				<path style="fill:#FD6572;" d="M1568.829,1160.627l45.465,90.842c0.769,1.538,2.299,2.547,4.015,2.649      c1.715,0.102,3.354-0.718,4.301-2.152l55.939-84.794c0.946-1.435,1.055-3.265,0.286-4.802c-0.338-0.675-0.822-1.247-1.403-1.686      c-0.744-0.562-1.649-0.906-2.612-0.963l-101.403-6.047c-1.715-0.102-3.355,0.718-4.301,2.152      C1568.169,1157.26,1568.06,1159.09,1568.829,1160.627z"/>
				<path style="fill:#00C1B3;" d="M1494.576,1262.594c10.922,8.245,26.517,6.067,34.763-4.856      c8.245-10.922,6.067-26.517-4.856-34.763c-10.923-8.245-26.517-6.067-34.763,4.856      C1481.475,1238.754,1483.653,1254.349,1494.576,1262.594z"/>
				<path style="fill:#00C1B3;" d="M1953.566,1214.039c7.07,5.337,17.164,3.927,22.502-3.143c5.337-7.07,3.927-17.164-3.143-22.502      c-7.07-5.337-17.164-3.927-22.502,3.143C1945.086,1198.608,1946.496,1208.702,1953.566,1214.039z"/>
				<path style="fill:#FED652;" d="M1455.965,1367.146c7.07,5.337,17.165,3.927,22.502-3.143c5.337-7.07,3.927-17.164-3.143-22.501      c-7.07-5.337-17.165-3.927-22.502,3.143C1447.485,1351.715,1448.895,1361.809,1455.965,1367.146z"/>
				<path style="fill:#FED652;" d="M2074.67,1503.559c18.898,14.265,45.879,10.497,60.144-8.401      c14.266-18.898,10.497-45.878-8.401-60.144c-18.898-14.266-45.879-10.497-60.144,8.401      C2052.004,1462.312,2055.773,1489.293,2074.67,1503.559z"/>
				<path style="fill:#8F5BD9;" d="M1383.004,1522.469c18.898,14.265,45.879,10.497,60.144-8.401      c14.266-18.898,10.497-45.878-8.401-60.144c-18.898-14.265-45.879-10.497-60.144,8.401      C1360.337,1481.223,1364.106,1508.203,1383.004,1522.469z"/>
				<path style="fill:#2518EE;" d="M2415.453,1015.82c-0.439-0.885-1.272-1.51-2.245-1.685c-0.973-0.174-1.971,0.123-2.691,0.8      l-68.727,64.743c-0.717,0.675-1.072,1.649-0.96,2.628c0.112,0.978,0.679,1.846,1.53,2.341l77.72,45.255      c0.871,0.507,1.909,0.553,2.798,0.173c0.321-0.137,0.623-0.331,0.89-0.577l31.26-28.865c1.019-0.94,1.295-2.439,0.678-3.681      L2415.453,1015.82z"/>
				<path style="fill:#FED652;" d="M2449.679,1379.754c1.352,11.23,5.785,21.916,12.821,30.905c1.034,1.322,2.913,1.623,4.308,0.689      l17.971-12.019c0.761-0.509,1.269-1.32,1.394-2.227c0.126-0.907-0.143-1.824-0.737-2.521      c-4.399-5.156-7.154-11.441-7.964-18.174c-2.267-18.822,11.202-35.98,30.025-38.247c14.202-1.71,28.139,5.714,34.68,18.475      c0.417,0.815,1.163,1.411,2.049,1.641s1.828,0.071,2.588-0.438l18.047-12.07c1.033-0.691,1.542-1.885,1.402-3.051      c-0.05-0.41-0.179-0.818-0.396-1.198c-12.455-21.938-36.68-34.166-61.717-31.151      C2470.002,1314.481,2445.567,1345.607,2449.679,1379.754z"/>
				<path style="fill:#FD6572;" d="M2480.112,1199.949l-62.138,3.896c-1.052,0.065-1.988,0.687-2.456,1.631      c-0.468,0.943-0.398,2.065,0.184,2.942l34.443,51.865c0.583,0.877,1.589,1.377,2.64,1.311c0.461-0.029,0.9-0.165,1.288-0.388      c0.495-0.285,0.906-0.714,1.168-1.243l27.695-55.76c0.469-0.943,0.398-2.065-0.184-2.942      C2482.17,1200.383,2481.164,1199.883,2480.112,1199.949z"/>
				<path style="fill:#2518EE;" d="M1925.28,1428.107c-8.146,3.482-11.939,12.942-8.457,21.087      c3.482,8.145,12.942,11.94,21.087,8.458s11.94-12.942,8.458-21.087C1942.886,1428.419,1933.426,1424.625,1925.28,1428.107z"/>
				<path style="fill:#FD6572;" d="M1218.379,1517.448l-67.525,59.211c-1.144,1.002-1.664,2.537-1.367,4.027      c0.296,1.49,1.365,2.709,2.803,3.197l85.04,28.873c1.439,0.488,3.029,0.172,4.171-0.829c0.501-0.439,0.883-0.982,1.128-1.578      c0.314-0.762,0.406-1.613,0.239-2.449l-17.516-88.083c-0.296-1.49-1.365-2.709-2.803-3.197      C1221.111,1516.13,1219.521,1516.446,1218.379,1517.448z"/>
			</g>
		</g>
	</g>
</g>


</svg>